# xmcd CD database file
#
# Track frame offsets:
#	150
#	27960
#	47067
#
# Disc length: 997 seconds
#
# Revision: 0
# Processed by: cddbd v1.5PL3 Copyright (c) Steve Scherf et al.
# Submitted via: CDex 1.51
#
DISCID=1d03e303
DTITLE=The Yellow Monkey - 離れるな
DYEAR=1900
DGENRE=ロック (日本)
TTITLE0=離れるな
TTITLE1=ゴージャス
TTITLE2=離れるな (Instrumental)
EXTD=
EXTT0=
EXTT1=
EXTT2=
PLAYORDER=
